Coordinates
version=1
nRows=6
nColumns=63
inDegrees=yes

Units are S.I. units (second, meters, Newtons, ...)
If the header above contains a line with 'inDegrees', this indicates whether rotational values are in degrees (yes) or radians (no).

endheader
time	pelvis_tilt	pelvis_list	pelvis_rotation	pelvis_tx	pelvis_ty	pelvis_tz	hip_flexion_r	hip_adduction_r	hip_rotation_r	knee_angle_r	knee_angle_r_beta	ankle_angle_r	subtalar_angle_r	mtp_angle_r	hip_flexion_l	hip_adduction_l	hip_rotation_l	knee_angle_l	knee_angle_l_beta	ankle_angle_l	subtalar_angle_l	mtp_angle_l	L5_S1_Flex_Ext	L5_S1_Lat_Bending	L5_S1_axial_rotation	L4_L5_Flex_Ext	L4_L5_Lat_Bending	L4_L5_axial_rotation	L3_L4_Flex_Ext	L3_L4_Lat_Bending	L3_L4_axial_rotation	L2_L3_Flex_Ext	L2_L3_Lat_Bending	L2_L3_axial_rotation	L1_L2_Flex_Ext	L1_L2_Lat_Bending	L1_L2_axial_rotation	L1_T12_Flex_Ext	L1_T12_Lat_Bending	L1_T12_axial_rotation	Abs_r3	Abs_r2	Abs_r1	Abs_t1	Abs_t2	neck_flexion	neck_bending	neck_rotation	arm_flex_r	arm_add_r	arm_rot_r	elbow_flex_r	pro_sup_r	wrist_flex_r	wrist_dev_r	arm_flex_l	arm_add_l	arm_rot_l	elbow_flex_l	pro_sup_l	wrist_flex_l	wrist_dev_l
      0.00800000	    -43.41579347	      0.56766271	     -0.70970131	     -0.18843080	      1.10567304	     -0.00806317	     88.94498123	     -2.40295499	      0.27822690	     81.43871525	      1.42137372	      7.56632268	     -1.28977632	      0.00000000	    107.25404022	     -3.05304414	      5.14071511	     75.57045211	      1.31895321	     15.28630411	     -8.10875523	      0.00000000	     -0.08062976	     -0.33938443	      0.33565507	     -0.14973753	     -0.45138129	      0.35663351	     -0.13246664	     -0.82517931	      0.35663351	     -0.09215176	     -0.82517931	      0.29369818	     -0.07487280	     -0.69207273	      0.27271974	     -0.04607185	     -0.52570649	      0.25174130	     -0.57593033	     -3.83918457	      1.86681278	      0.00000000	      0.00000000	     -0.00000000	      0.00000000	      0.00000000	     59.38147842	     -7.36502622	     17.65770133	     38.06703785	     29.39132880	      0.00000000	      5.87689341	     66.96826562	     -3.85747401	     26.28313254	     26.16463894	     48.17457617	      0.00000000	      5.87689341
      0.01700000	    -43.52206373	     -0.62708671	     -0.56962787	     -0.19022367	      1.10582422	     -0.00830742	     92.08218241	     -2.83239992	     -0.71928941	     87.11534357	      1.52044957	      7.89328626	     -0.13084872	      0.00000000	    103.58546562	     -2.65724845	      6.12706568	     68.94487055	      1.20331499	     13.13076761	     -8.84434902	      0.00000000	     -0.08190649	     -0.19219234	      0.27870200	     -0.15210854	     -0.25561581	      0.29612088	     -0.13456417	     -0.46729645	      0.29612088	     -0.09361093	     -0.46729645	      0.24386425	     -0.07605837	     -0.39191861	      0.22644538	     -0.04680137	     -0.29770593	      0.20902650	     -0.58504988	     -2.17411815	      1.55005693	      0.00000000	      0.00000000	     -0.00000000	      0.00000000	      0.00000000	     59.94220045	     -7.64496258	     19.15843695	     37.89143974	     29.61161731	      0.00000000	      5.85221777	     67.68864049	     -3.21306835	     25.83205362	     24.39132943	     48.14165968	      0.00000000	      5.85221777
      0.02500000	    -43.53616002	     -1.10056392	     -0.54616531	     -0.19042246	      1.10560489	     -0.00857302	     93.07011361	     -2.98874627	     -1.05704233	     88.78900935	      1.54966055	      8.60942590	      0.52642928	      0.00000000	    102.48725329	     -2.68412557	      6.28862411	     67.11285307	      1.17134026	     11.62768318	     -9.93277861	      0.00000000	     -0.08129138	     -0.12547756	      0.26363585	     -0.15096622	     -0.16688516	      0.28011309	     -0.13355361	     -0.30508615	      0.28011309	     -0.09290792	     -0.30508615	      0.23068137	     -0.07548718	     -0.25587385	      0.21420413	     -0.04644990	     -0.19436475	      0.19772689	     -0.58065620	     -1.41942730	      1.46626351	      0.00000000	      0.00000000	     -0.00000000	      0.00000000	      0.00000000	     60.39473035	     -8.08836967	     21.14515920	     37.68718866	     29.75619470	      0.00000000	      5.79786522	     67.53673928	     -3.02470021	     24.84157264	     24.38227515	     48.08148569	      0.00000000	      5.79786522
      0.03300000	    -43.54357737	     -1.52460557	     -0.44789599	     -0.19046424	      1.10527493	     -0.00874522	     94.29790688	     -3.22897468	     -1.38625650	     90.76439930	      1.58413761	      8.86149093	      0.43505894	      0.00000000	    101.13616262	     -2.80400196	      6.31583139	     65.01886517	      1.13479327	     11.05183562	     -9.53056055	      0.00000000	     -0.08064728	     -0.06693396	      0.24197640	     -0.14977007	     -0.08902217	      0.25709993	     -0.13249542	     -0.16274324	      0.25709993	     -0.09217178	     -0.16274324	      0.21172935	     -0.07488907	     -0.13649174	      0.19660583	     -0.04608186	     -0.10368071	      0.18148230	     -0.57605548	     -0.75717038	      1.34580014	      0.00000000	      0.00000000	     -0.00000000	      0.00000000	      0.00000000	     60.50591451	     -8.18664973	     21.38482829	     37.77163205	     29.76299237	      0.00000000	      5.78443538	     67.50539662	     -2.88349743	     24.53946225	     24.17602609	     48.05427603	      0.00000000	      5.78443538
      0.04200000	    -43.54176730	     -1.96961395	     -0.34553927	     -0.19044510	      1.10482805	     -0.00900556	     95.68600492	     -3.49849923	     -1.70922050	     92.94399250	      1.62217869	      9.27550531	      0.30921294	      0.00000000	     99.61580098	     -2.97902982	      6.28036903	     62.73310530	      1.09489924	     10.38552010	     -9.01897966	      0.00000000	     -0.08037905	     -0.00216325	      0.21786422	     -0.14927194	     -0.00287712	      0.23148073	     -0.13205474	     -0.00525973	      0.23148073	     -0.09186522	     -0.00525973	      0.19063119	     -0.07463999	     -0.00441130	      0.17701468	     -0.04592859	     -0.00335087	      0.16339816	     -0.57413953	     -0.02447112	      1.21169541	      0.00000000	      0.00000000	     -0.00000000	      0.00000000	      0.00000000	     60.66177879	     -8.30549723	     21.75973975	     37.83287935	     29.82276840	      0.00000000	      5.76886716	     67.43900958	     -2.76416767	     24.18577192	     24.01319916	     48.00338815	      0.00000000	      5.76886716
      0.05000000	    -43.52414315	     -2.41856908	     -0.18156774	     -0.19028044	      1.10429893	     -0.00950893	     97.19460140	     -3.86433718	     -2.01651121	     95.26752096	      1.66273191	      9.86627839	      0.20222898	      0.00000000	     97.94757712	     -3.11841856	      6.20356794	     60.32254586	      1.05282704	      9.60773859	     -8.45856198	      0.00000000	     -0.07958786	      0.06647933	      0.18131373	     -0.14780261	      0.08841750	      0.19264584	     -0.13075489	      0.16163783	      0.19264584	     -0.09096096	      0.16163783	      0.15864952	     -0.07390529	      0.13556464	      0.14731741	     -0.04547650	      0.10297647	      0.13598530	     -0.56848811	      0.75202742	      1.00841259	      0.00000000	      0.00000000	     -0.00000000	      0.00000000	      0.00000000	     60.83495921	     -8.46661350	     22.30565043	     37.86808225	     29.90044341	      0.00000000	      5.75061058	     67.30032701	     -2.64433816	     23.69207624	     23.89043514	     47.92412412	      0.00000000	      5.75061058
